name rise43.5482peak65.4966fall89.1036.mot
datacolumns 19
datarows 33
range 3.09832400000000 3.15164700000000
endheader
time	ground_force1_vx	ground_force1_vy	ground_force1_vz	ground_force1_px	ground_force1_py	ground_force1_pz	ground_force2_vx	ground_force2_vy	ground_force2_vz	ground_force2_px	ground_force2_py	ground_force2_pz	ground_torque1_x	ground_torque1_y	ground_torque1_z	ground_torque2_x	ground_torque2_y	ground_torque2_z	
3.09832400000000	66.30366900000000	754.83532800000000	52.57950500000000	0.28768200000000	0.00000000000000	0.13864000000000	0.76491700000000	6.74161300000000	0.54046100000000	0.00000000000000	0.00000000000000	0.00000000000000	0.00000000000000	10.97827800000000	0.00000000000000	0.00000000000000	0.00353700000000	0.00000000000000	
3.09999800000000	65.66089900000000	758.18558599999994	52.74151300000000	0.28705000000000	0.00000000000000	0.13859600000000	0.67566600000000	3.31266100000000	0.30808800000000	0.00000000000000	0.00000000000000	0.00000000000000	0.00000000000000	11.13769500000000	0.00000000000000	0.00000000000000	0.01753600000000	0.00000000000000	
3.10165500000000	65.00673399999999	761.39023499999996	52.90470800000000	0.28641600000000	0.00000000000000	0.13855400000000	0.00000000000000	0.00000000000000	0.00000000000000	0.00000000000000	0.00000000000000	0.00000000000000	0.00000000000000	11.30051000000000	0.00000000000000	0.00000000000000	0.00000000000000	0.00000000000000	
3.10331500000000	64.34187799999999	764.44750899999997	53.06866300000000	0.28577800000000	0.00000000000000	0.13851300000000	0.00000000000000	0.00000000000000	0.00000000000000	0.00000000000000	0.00000000000000	0.00000000000000	0.00000000000000	11.46628000000000	0.00000000000000	0.00000000000000	0.00000000000000	0.00000000000000	
3.10498200000000	63.66701100000000	767.35581300000001	53.23287500000000	0.28513500000000	0.00000000000000	0.13847500000000	0.00000000000000	0.00000000000000	0.00000000000000	0.00000000000000	0.00000000000000	0.00000000000000	0.00000000000000	11.63452600000000	0.00000000000000	0.00000000000000	0.00000000000000	0.00000000000000	
3.10665200000000	62.98278900000000	770.11372800000004	53.39677800000000	0.28448500000000	0.00000000000000	0.13843800000000	0.00000000000000	0.00000000000000	0.00000000000000	0.00000000000000	0.00000000000000	0.00000000000000	0.00000000000000	11.80474500000000	0.00000000000000	0.00000000000000	0.00000000000000	0.00000000000000	
3.10831700000000	62.28984600000000	772.72002199999997	53.55974400000000	0.28382600000000	0.00000000000000	0.13840200000000	0.00000000000000	0.00000000000000	0.00000000000000	0.00000000000000	0.00000000000000	0.00000000000000	0.00000000000000	11.97640500000000	0.00000000000000	0.00000000000000	0.00000000000000	0.00000000000000	
3.10999100000000	61.58879700000000	775.17365500000005	53.72109300000000	0.28315800000000	0.00000000000000	0.13836800000000	0.00000000000000	0.00000000000000	0.00000000000000	0.00000000000000	0.00000000000000	0.00000000000000	0.00000000000000	12.14895300000000	0.00000000000000	0.00000000000000	0.00000000000000	0.00000000000000	
3.11165300000000	60.88024300000000	777.47378500000002	53.88009800000000	0.28247900000000	0.00000000000000	0.13833600000000	0.00000000000000	0.00000000000000	0.00000000000000	0.00000000000000	0.00000000000000	0.00000000000000	0.00000000000000	12.32181900000000	0.00000000000000	0.00000000000000	0.00000000000000	0.00000000000000	
3.11331900000000	60.16476800000000	779.61977700000000	54.03599400000000	0.28178700000000	0.00000000000000	0.13830500000000	0.00000000000000	0.00000000000000	0.00000000000000	0.00000000000000	0.00000000000000	0.00000000000000	0.00000000000000	12.49442000000000	0.00000000000000	0.00000000000000	0.00000000000000	0.00000000000000	
3.11498200000000	59.44294400000000	781.61120400000004	54.18798600000000	0.28108100000000	0.00000000000000	0.13827600000000	0.00000000000000	0.00000000000000	0.00000000000000	0.00000000000000	0.00000000000000	0.00000000000000	0.00000000000000	12.66616100000000	0.00000000000000	0.00000000000000	0.00000000000000	0.00000000000000	
3.11665300000000	58.71533400000000	783.44785600000000	54.33525400000000	0.28036000000000	0.00000000000000	0.13824800000000	0.00000000000000	0.00000000000000	0.00000000000000	0.00000000000000	0.00000000000000	0.00000000000000	0.00000000000000	12.83644400000000	0.00000000000000	0.00000000000000	0.00000000000000	0.00000000000000	
3.11832000000000	57.98249600000000	785.12974099999997	54.47696200000000	0.27962300000000	0.00000000000000	0.13822200000000	0.00000000000000	0.00000000000000	0.00000000000000	0.00000000000000	0.00000000000000	0.00000000000000	0.00000000000000	13.00466800000000	0.00000000000000	0.00000000000000	0.00000000000000	0.00000000000000	
3.11999600000000	57.24497800000000	786.65709200000003	54.61226700000000	0.27886900000000	0.00000000000000	0.13819700000000	0.00000000000000	0.00000000000000	0.00000000000000	0.00000000000000	0.00000000000000	0.00000000000000	0.00000000000000	13.17023600000000	0.00000000000000	0.00000000000000	0.00000000000000	0.00000000000000	
3.12164900000000	56.50332700000000	788.03036299999997	54.74032200000000	0.27809700000000	0.00000000000000	0.13817300000000	0.00000000000000	0.00000000000000	0.00000000000000	0.00000000000000	0.00000000000000	0.00000000000000	0.00000000000000	13.33255600000000	0.00000000000000	0.00000000000000	0.00000000000000	0.00000000000000	
3.12331900000000	55.75809100000000	789.25023999999996	54.86028700000000	0.27730700000000	0.00000000000000	0.13815000000000	0.00000000000000	0.00000000000000	0.00000000000000	0.00000000000000	0.00000000000000	0.00000000000000	0.00000000000000	13.49104600000000	0.00000000000000	0.00000000000000	0.00000000000000	0.00000000000000	
3.12498900000000	55.00981400000000	790.31763500000000	54.97133600000000	0.27649600000000	0.00000000000000	0.13812800000000	0.00000000000000	0.00000000000000	0.00000000000000	0.00000000000000	0.00000000000000	0.00000000000000	0.00000000000000	13.64514000000000	0.00000000000000	0.00000000000000	0.00000000000000	0.00000000000000	
3.12665300000000	54.25904500000000	791.23369200000002	55.07266000000000	0.27566600000000	0.00000000000000	0.13810800000000	0.00000000000000	0.00000000000000	0.00000000000000	0.00000000000000	0.00000000000000	0.00000000000000	0.00000000000000	13.79428700000000	0.00000000000000	0.00000000000000	0.00000000000000	0.00000000000000	
3.12831600000000	53.50633500000000	791.99978299999998	55.16347700000000	0.27481400000000	0.00000000000000	0.13808800000000	0.00000000000000	0.00000000000000	0.00000000000000	0.00000000000000	0.00000000000000	0.00000000000000	0.00000000000000	13.93795800000000	0.00000000000000	0.00000000000000	0.00000000000000	0.00000000000000	
3.13000000000000	52.75224200000000	792.61750900000004	55.24303600000000	0.27394200000000	0.00000000000000	0.13806900000000	0.00000000000000	0.00000000000000	0.00000000000000	0.00000000000000	0.00000000000000	0.00000000000000	0.00000000000000	14.07564700000000	0.00000000000000	0.00000000000000	0.00000000000000	0.00000000000000	
3.13166100000000	51.99732600000000	793.08869900000002	55.31062400000000	0.27304900000000	0.00000000000000	0.13805000000000	0.00000000000000	0.00000000000000	0.00000000000000	0.00000000000000	0.00000000000000	0.00000000000000	0.00000000000000	14.20687500000000	0.00000000000000	0.00000000000000	0.00000000000000	0.00000000000000	
3.13331800000000	51.24215600000000	793.41540799999996	55.36557100000000	0.27213400000000	0.00000000000000	0.13803300000000	0.00000000000000	0.00000000000000	0.00000000000000	0.00000000000000	0.00000000000000	0.00000000000000	0.00000000000000	14.33119200000000	0.00000000000000	0.00000000000000	0.00000000000000	0.00000000000000	
3.13498000000000	50.48730800000000	793.59991200000002	55.40725300000000	0.27119700000000	0.00000000000000	0.13801600000000	0.00000000000000	0.00000000000000	0.00000000000000	0.00000000000000	0.00000000000000	0.00000000000000	0.00000000000000	14.44818000000000	0.00000000000000	0.00000000000000	0.00000000000000	0.00000000000000	
3.13665300000000	49.73336400000000	793.64470800000004	55.43509900000000	0.27024000000000	0.00000000000000	0.13799900000000	0.00000000000000	0.00000000000000	0.00000000000000	0.00000000000000	0.00000000000000	0.00000000000000	0.00000000000000	14.55745600000000	0.00000000000000	0.00000000000000	0.00000000000000	0.00000000000000	
3.13831700000000	48.98091400000000	793.55250699999999	55.44859300000000	0.26926100000000	0.00000000000000	0.13798200000000	0.00000000000000	0.00000000000000	0.00000000000000	0.00000000000000	0.00000000000000	0.00000000000000	0.00000000000000	14.65867100000000	0.00000000000000	0.00000000000000	0.00000000000000	0.00000000000000	
3.13999800000000	48.23055600000000	793.32623000000001	55.44727900000000	0.26826200000000	0.00000000000000	0.13796600000000	0.00000000000000	0.00000000000000	0.00000000000000	0.00000000000000	0.00000000000000	0.00000000000000	0.00000000000000	14.75151500000000	0.00000000000000	0.00000000000000	0.00000000000000	0.00000000000000	
3.14165000000000	47.48289400000000	792.96900400000004	55.43076300000000	0.26724200000000	0.00000000000000	0.13795000000000	0.00000000000000	0.00000000000000	0.00000000000000	0.00000000000000	0.00000000000000	0.00000000000000	0.00000000000000	14.83571500000000	0.00000000000000	0.00000000000000	0.00000000000000	0.00000000000000	
3.14331400000000	46.73853800000000	792.48415199999999	55.39871400000000	0.26620300000000	0.00000000000000	0.13793400000000	0.00000000000000	0.00000000000000	0.00000000000000	0.00000000000000	0.00000000000000	0.00000000000000	0.00000000000000	14.91103900000000	0.00000000000000	0.00000000000000	0.00000000000000	0.00000000000000	
3.14498400000000	45.99810400000000	791.87518999999998	55.35086900000000	0.26514400000000	0.00000000000000	0.13791800000000	0.00000000000000	0.00000000000000	0.00000000000000	0.00000000000000	0.00000000000000	0.00000000000000	0.00000000000000	14.97729500000000	0.00000000000000	0.00000000000000	0.00000000000000	0.00000000000000	
3.14665100000000	45.26221300000000	791.14581999999996	55.28703200000000	0.26406800000000	0.00000000000000	0.13790100000000	0.00000000000000	0.00000000000000	0.00000000000000	0.00000000000000	0.00000000000000	0.00000000000000	0.00000000000000	15.03433300000000	0.00000000000000	0.00000000000000	0.00000000000000	0.00000000000000	
3.14832000000000	44.53148800000000	790.29991800000005	55.20707700000000	0.26297400000000	0.00000000000000	0.13788400000000	0.00000000000000	0.00000000000000	0.00000000000000	0.00000000000000	0.00000000000000	0.00000000000000	0.00000000000000	15.08204300000000	0.00000000000000	0.00000000000000	0.00000000000000	0.00000000000000	
3.14999400000000	43.80655400000000	789.34153000000003	55.11094700000000	0.26186400000000	0.00000000000000	0.13786700000000	0.00000000000000	0.00000000000000	0.00000000000000	0.00000000000000	0.00000000000000	0.00000000000000	0.00000000000000	15.12035400000000	0.00000000000000	0.00000000000000	0.00000000000000	0.00000000000000	
3.15164700000000	43.08803600000000	788.27485999999999	54.99865400000000	0.26073900000000	0.00000000000000	0.13784900000000	0.00000000000000	0.00000000000000	0.00000000000000	0.00000000000000	0.00000000000000	0.00000000000000	0.00000000000000	15.14924000000000	0.00000000000000	0.00000000000000	0.00000000000000	0.00000000000000	
